<svg viewBox="0 0 480 380" xmlns="http://www.w3.org/2000/svg" role="img" aria-label="Podest teleskopowo-przegubowy">
  <!-- linie pomocnicze -->
  <g stroke="#9db3c4" stroke-width="1.5" stroke-dasharray="2 6" opacity="0.7" fill="none">
    <path d="M60 358 H420"/>
    <path d="M372 96 H418"/>
  </g>

  <ellipse cx="206" cy="356" rx="150" ry="9" fill="#152F4F" opacity="0.08"/>

  <!-- koła -->
  <circle cx="150" cy="338" r="24" fill="#152F4F"/>
  <circle cx="150" cy="338" r="10" fill="#52748F"/>
  <circle cx="258" cy="338" r="24" fill="#152F4F"/>
  <circle cx="258" cy="338" r="10" fill="#52748F"/>

  <!-- podwozie + przeciwwaga -->
  <path d="M104 300 h208 a8 8 0 0 1 8 8 v22 a6 6 0 0 1 -6 6 H102 a6 6 0 0 1 -6 -6 v-22 a8 8 0 0 1 8 -8 Z" fill="#152F4F"/>
  <rect x="92" y="288" width="34" height="24" rx="4" fill="#152F4F"/>

  <!-- obrotnica -->
  <rect x="178" y="278" width="56" height="26" rx="5" fill="#1d3a5c"/>
  <circle cx="206" cy="291" r="7" fill="#52748F"/>

  <!-- wysięgnik przegubowy -->
  <g stroke="#152F4F" stroke-width="17" stroke-linecap="round" stroke-linejoin="round" fill="none">
    <path d="M206 291 L176 188"/>
    <path d="M176 188 L320 150"/>
    <path d="M320 150 L356 130"/>
  </g>
  <circle cx="176" cy="188" r="10" fill="#52748F"/>
  <circle cx="320" cy="150" r="9" fill="#52748F"/>

  <!-- kosz -->
  <rect x="350" y="108" width="50" height="40" rx="3" fill="none" stroke="#152F4F" stroke-width="7"/>
  <path d="M350 122 H400" stroke="#152F4F" stroke-width="5"/>
  <path d="M353 104 H397" stroke="#f5a623" stroke-width="7" stroke-linecap="round"/>
</svg>
